<?xml version="1.0" encoding="UTF-8"?>
<svg version="1.1" xmlns="http://www.w3.org/2000/svg" width="2465" height="1498">
<path d="M0 0 C1.26166992 0.12358887 2.52333984 0.24717773 3.82324219 0.37451172 C82.58522311 8.248094 159.33886586 32.03083419 280 103 C280.7842334 103.55896973 281.5684668 104.11793945 282.37646484 104.69384766 C293.97551924 113.00701111 305.10071959 121.79278331 316 131 C316.61182129 131.51272461 317.22364258 132.02544922 317.85400391 132.55371094 C331.529672 144.01785157 344.36668283 156.2802854 357 168.875 C357.49490936 169.36723053 357.98981873 169.85946106 358.49972534 170.36660767 C364.22133978 176.0646837 369.75862554 181.85482655 375 188 C376.02124143 189.1568902 377.04464781 190.31187326 378.0703125 191.46484375 C385.59348896 199.99046 392.61399027 208.80676854 399.42675781 217.90771484 C400.93526811 219.91391181 402.46051685 221.90598454 403.9921875 223.89453125 C459.55716206 296.37098507 493.83608534 385.17219334 504.3125 478 C504.43460342 479.08970093 504.43460342 479.08970093 504.55917358 480.20141602 C506.47046299 497.53201851 507.21035326 514.81888814 507.1875 532.25 C507.18689575 533.11439697 507.1862915 533.97879395 507.18566895 534.86938477 C507.04221878 611.21986073 490.77746325 691.12170023 454.99511719 759.06835938 C453.90779406 761.17898268 452.87673786 763.31164758 451.8515625 765.453125 C435.3339981 799.75667941 413.73170128 831.99237065 389.43994141 861.25585938 C387.41245602 863.71166737 385.42994304 866.20322868 383.4375 868.6875 C379.12656395 873.95554296 374.52998402 878.92892307 369.8828125 883.8984375 C367.49632747 886.45239516 365.17879068 889.05846829 362.875 891.6875 C358.39541885 896.68490429 353.67447102 901.43468467 348.9375 906.1875 C348.18130371 906.94828857 347.42510742 907.70907715 346.64599609 908.49291992 C342.48929172 912.63831662 338.24601688 916.61691969 333.79760742 920.44750977 C331.37818661 922.53702449 329.03554906 924.70588469 326.6875 926.875 C321.28506684 931.79507305 315.71085243 936.44355013 310 941 C309.49162598 941.40798828 308.98325195 941.81597656 308.45947266 942.23632812 C236.15315472 1000.18755266 150.62502467 1040.03518459 -121.30453491 1065.49609375 C-204.95290276 1056.11979319 -286.06137879 1028.83820347 -358 985 C-359.26529541 984.23091309 -359.26529541 984.23091309 -360.55615234 983.44628906 C-388.82536259 966.16660079 -415.99915892 946.28013481 -440.19140625 923.59765625 C-442.2407394 921.70223686 -444.30476113 919.89077463 -446.4296875 918.0859375 C-452.43194015 912.85547386 -457.99162136 907.15713765 -463.60913086 901.52124023 C-465.5579687 899.56704376 -467.51209272 897.61824853 -469.46679688 895.66992188 C-475.52336067 889.61688552 -481.49052842 883.56273878 -487 877 C-487.94845949 875.91616142 -488.89894267 874.83409001 -489.8515625 873.75390625 C-497.65365899 864.80919093 -504.89047435 855.50050249 -512 846 C-512.58072266 845.22962402 -513.16144531 844.45924805 -513.75976562 843.66552734 C-521.99324107 832.73480133 -529.79722007 821.63743268 -537 810 C-537.71470459 808.84661133 -537.71470459 808.84661133 -538.44384766 807.66992188 C-582.47228083 736.23795978 -608.11532544 658.30795223 -616 575 C-616.15686279 573.41372803 -616.15686279 573.41372803 -616.31689453 571.79541016 C-617.37590936 559.47938979 -617.24387604 547.10191389 -617.25 534.75 C-617.25067474 533.52657898 -617.25134949 532.30315796 -617.25204468 531.04266357 C-617.23468835 511.18215315 -616.53498835 491.70105116 -614 472 C-613.9175 471.3404834 -613.835 470.6809668 -613.75 470.00146484 C-609.75441197 438.0751797 -602.91889082 406.61630966 -593 376 C-592.66419922 374.95295898 -592.32839844 373.90591797 -591.98242188 372.82714844 C-569.81665895 304.37405704 -532.74569133 240.66801195 -484.265625 187.51171875 C-482.4199285 185.46554142 -480.61467051 183.39534345 -478.81445312 181.30957031 C-475.25167347 177.23612789 -471.52543846 173.36422864 -467.703125 169.53515625 C-467.0288446 168.85754745 -466.35456421 168.17993866 -465.65985107 167.48179626 C-464.24263926 166.05955939 -462.82410433 164.63863981 -461.40429688 163.21899414 C-459.26402078 161.07653508 -457.13188019 158.9262001 -455 156.77539062 C-448.34926163 150.09795606 -441.72211588 143.62747899 -434.28662109 137.8190918 C-431.87317234 135.8991039 -429.62570996 133.85728485 -427.375 131.75 C-420.99000102 125.94086327 -414.08287598 120.82475335 -407.18603516 115.64648438 C-405.10916054 114.08221786 -403.04333722 112.50454476 -400.98046875 110.921875 C-391.27123855 103.5030707 -381.27285687 96.61423358 -371 90 C-370.21592773 89.49388184 -369.43185547 88.98776367 -368.62402344 88.46630859 C-289.40091342 37.6333499 -197.93731987 7.60000788 0 0 Z " fill="#013566" transform="translate(1295,295)"/>
<path d="M0 0 C12.58271775 10.99874374 23.4509132 22.74121008 32.30859375 36.9375 C32.74220215 37.62859863 33.17581055 38.31969727 33.62255859 39.03173828 C46.31802647 59.64687421 53.74693788 82.50886911 59.30859375 105.9375 C59.48471191 106.6711377 59.66083008 107.40477539 59.84228516 108.16064453 C64.52845049 128.12844031 66.42874185 149.14918032 66.51171875 169.62109375 C66.51873306 170.78729752 66.52574738 171.95350128 66.53297424 173.15504456 C66.55036927 176.89506948 66.55682572 180.63493611 66.55859375 184.375 C66.55926849 185.65205811 66.55994324 186.92911621 66.56063843 188.24487305 C66.51031985 248.12680688 56.11586265 308.37601071 13.43359375 353.125 C4.43712072 361.82830894 -5.93591121 368.63558965 -16.69140625 374.9375 C-15.86286133 375.16300537 -15.86286133 375.16300537 -15.01757812 375.39306641 C21.56846579 385.41861241 53.22852124 400.08970518 73.1159668 434.20825195 C77.30599584 441.65021952 80.96197882 449.29661112 84.37109375 457.125 C84.75338135 457.99769531 85.13566895 458.87039063 85.52954102 459.76953125 C87.5412882 464.53975811 88.85443536 468.77406847 89.30859375 473.9375 C81.58559772 477.09480786 73.85914562 480.24354878 66.12939453 483.38427734 C63.62704331 484.40107876 61.1255719 485.41995967 58.62451172 486.43994141 C55.18797838 487.84021945 51.74869537 489.23351535 48.30859375 490.625 C46.71736694 491.2754126 46.71736694 491.2754126 45.09399414 491.93896484 C44.11293701 492.33422363 43.13187988 492.72948242 42.12109375 493.13671875 C40.83138672 493.66011841 40.83138672 493.66011841 39.515625 494.1940918 C37.30859375 494.9375 37.30859375 494.9375 34.30859375 494.9375 C33.96828125 494.0403125 33.62796875 493.143125 33.27734375 492.21875 C29.52037955 482.47969518 25.18639585 473.16367882 20.30859375 463.9375 C19.7686377 462.91342041 19.7686377 462.91342041 19.21777344 461.86865234 C5.07877873 435.29709333 -14.0530653 415.42690551 -42.69140625 404.9375 C-43.65949219 404.57914063 -44.62757813 404.22078125 -45.625 403.8515625 C-61.59476514 398.44015164 -78.07162614 397.58102411 -94.80834961 397.31567383 C-128.51945044 396.67417929 -157.34867287 385.24172087 -181.69140625 361.9375 C-182.42617187 361.26589844 -183.1609375 360.59429688 -183.91796875 359.90234375 C-224.35909431 321.6761915 -236.09683669 256.87129208 -237.69140625 203.9375 C-238.36071212 180.08759567 -237.6291867 156.6216062 -234.69140625 132.9375 C-234.57925781 132.00615234 -234.46710938 131.07480469 -234.3515625 130.11523438 C-228.84154333 85.93304359 -212.37035322 43.53388115 -181.69140625 10.9375 C-180.79421875 9.94363281 -180.79421875 9.94363281 -179.87890625 8.9296875 C-165.36901453 -6.51834377 -145.03697979 -17.64662364 -124.69140625 -23.0625 C-124.02818359 -23.25569824 -123.36496094 -23.44889648 -122.68164062 -23.64794922 C-82.56384304 -35.07685667 -32.40878451 -26.42244852 0 0 Z " fill="#79E4A8" transform="translate(1504.69140625,615.0625)"/>
<path d="M0 0 C0.97839844 0.7734375 1.95679688 1.546875 2.96484375 2.34375 C29.6191564 24.69076646 38.17294396 67.29172402 41.28356934 99.97990417 C42.73225135 116.87079852 43.31930913 133.67965112 43.26074219 150.62915039 C43.24995158 154.32910334 43.2607623 158.02857647 43.2734375 161.72851562 C43.28715333 182.26870201 42.06345841 202.5163659 38.4375 222.75 C38.31194733 223.4596994 38.18639465 224.1693988 38.05703735 224.90060425 C32.48442438 255.8961954 21.58041115 287.85357915 -4.8203125 307.05078125 C-25.38590498 320.73540481 -52.04614642 323.1295289 -76.1015625 319.3515625 C-88.56694404 316.78050427 -100.58219046 310.48436293 -110 302 C-110.88300781 301.20980469 -111.76601562 300.41960937 -112.67578125 299.60546875 C-144.61699607 269.43140274 -151.3936795 217.75543779 -153.12438965 175.99887085 C-153.32604714 168.74957825 -153.33745475 161.5015768 -153.3125 154.25 C-153.31067719 153.14292694 -153.30885437 152.03585388 -153.30697632 150.89523315 C-153.17305813 102.30474238 -150.65149814 40.69437717 -114.16796875 3.94140625 C-84.33599158 -24.57866607 -31.75598129 -26.42014756 0 0 Z " fill="#013566" transform="translate(1474,649)"/>
<path d="M0 0 C57.42 0 114.84 0 174 0 C174.0806627 72.04971448 174.0806627 72.04971448 174.09765625 102.20703125 C174.10157154 109.10888682 174.10561238 116.01074229 174.10986328 122.91259766 C174.11039078 123.77754132 174.11091828 124.64248499 174.11146176 125.53363907 C174.1201422 139.4673742 174.13589975 153.4010927 174.15430559 167.33481799 C174.17305936 181.65216099 174.18412827 195.96949532 174.18817699 210.28685009 C174.19091072 219.10964771 174.19952082 227.93239831 174.21583293 236.75518145 C174.22646755 242.81886432 174.22958609 248.88252316 174.22700275 254.94621466 C174.22573146 258.43598594 174.22757327 261.92567551 174.23841095 265.41543198 C174.27634512 279.75062211 174.08593465 293.80093479 172 308 C171.86225222 308.94958021 171.72450443 309.89916042 171.58258247 310.87751579 C167.63416097 336.6082017 156.64580785 360.92986685 139 380 C138.33355469 380.73605469 137.66710938 381.47210937 136.98046875 382.23046875 C114.58813361 405.8484896 80.37704553 418.07674891 48.24804688 419.12207031 C43.72794619 419.2205182 39.20857326 419.24659484 34.6875 419.25 C33.8835379 419.25067474 33.07957581 419.25134949 32.25125122 419.25204468 C19.93832072 419.23563541 8.05009925 418.74230722 -4 416 C-4.77472656 415.82839355 -5.54945313 415.65678711 -6.34765625 415.47998047 C-27.66339333 410.63195002 -47.34907145 402.42259952 -66.125 391.3125 C-67.03040527 390.77810303 -67.03040527 390.77810303 -67.95410156 390.23291016 C-71.96965263 387.79497744 -75.4642045 385.06829671 -79 382 C-77.45390949 377.54296873 -75.05730803 373.82715053 -72.4296875 369.94921875 C-71.76805099 368.96100883 -71.76805099 368.96100883 -71.0930481 367.95283508 C-69.69136054 365.86144623 -68.28329576 363.77444324 -66.875 361.6875 C-65.92014786 360.26525924 -64.96571612 358.84273613 -64.01171875 357.41992188 C-61.67933413 353.94332662 -59.34122277 350.47064891 -57 347 C-56.34660645 347.36279053 -55.69321289 347.72558105 -55.02001953 348.09936523 C-38.64826912 357.11873242 -22.23609135 365.58678813 -4 370 C-2.34097656 370.45439453 -2.34097656 370.45439453 -0.6484375 370.91796875 C25.97094525 378.09509347 56.93588146 376.09611364 81.1875 362.75 C101.79217728 350.1056054 112.31457598 329.70968696 117.95703125 306.8984375 C118.31163136 305.26711893 118.6582952 303.63406835 119 302 C119.17428717 301.18281148 119.34857433 300.36562296 119.52814293 299.52367115 C121.62338324 288.07247112 121.30862478 276.54266413 121.31884766 264.94213867 C121.32815762 262.51660329 121.33832786 260.09107108 121.34928894 257.6655426 C121.37086628 252.46613731 121.38652592 247.26675097 121.39665604 242.06731224 C121.41131249 234.55002844 121.43686826 227.03281188 121.46498732 219.51556782 C121.51032957 207.31597913 121.54699598 195.11638068 121.578125 182.91674805 C121.60836225 171.0739572 121.64275844 159.23119026 121.68261719 147.38842773 C121.6850987 146.64960596 121.6875802 145.91078418 121.69013691 145.14957386 C121.71176216 138.72173938 121.73370005 132.29390597 121.75566864 125.86607265 C121.84966863 98.24407545 121.92315408 70.62206259 122 43 C81.74 43 41.48 43 0 43 C0 28.81 0 14.62 0 0 Z " fill="#FDFDFD" transform="translate(1004,595)"/>
<path d="M0 0 C1.26166992 0.12358887 2.52333984 0.24717773 3.82324219 0.37451172 C82.58522311 8.248094 159.33886586 32.03083419 280 103 C280.7842334 103.55896973 281.5684668 104.11793945 282.37646484 104.69384766 C293.97551924 113.00701111 305.10071959 121.79278331 316 131 C316.61182129 131.51272461 317.22364258 132.02544922 317.85400391 132.55371094 C331.529672 144.01785157 344.36668283 156.2802854 357 168.875 C357.49490936 169.36723053 357.98981873 169.85946106 358.49972534 170.36660767 C364.22133978 176.0646837 369.75862554 181.85482655 375 188 C376.02124143 189.1568902 377.04464781 190.31187326 378.0703125 191.46484375 C385.59348896 199.99046 392.61399027 208.80676854 399.42675781 217.90771484 C400.93526811 219.91391181 402.46051685 221.90598454 403.9921875 223.89453125 C459.55716206 296.37098507 493.83608534 385.17219334 504.3125 478 C504.43460342 479.08970093 504.43460342 479.08970093 504.55917358 480.20141602 C506.47046299 497.53201851 507.21035326 514.81888814 507.1875 532.25 C507.18689575 533.11439697 507.1862915 533.97879395 507.18566895 534.86938477 C507.04221878 611.21986073 490.77746325 691.12170023 454.99511719 759.06835938 C453.90779406 761.17898268 452.87673786 763.31164758 451.8515625 765.453125 C435.3339981 799.75667941 413.73170128 831.99237065 389.43994141 861.25585938 C387.41245602 863.71166737 385.42994304 866.20322868 383.4375 868.6875 C379.12656395 873.95554296 374.52998402 878.92892307 369.8828125 883.8984375 C367.49632747 886.45239516 365.17879068 889.05846829 362.875 891.6875 C358.39541885 896.68490429 353.67447102 901.43468467 348.9375 906.1875 C348.18130371 906.94828857 347.42510742 907.70907715 346.64599609 908.49291992 C342.48929172 912.63831662 338.24601688 916.61691969 333.79760742 920.44750977 C331.37818661 922.53702449 329.03554906 924.70588469 326.6875 926.875 C321.28506684 931.79507305 315.71085243 936.44355013 310 941 C309.49162598 941.40798828 308.98325195 941.81597656 308.45947266 942.23632812 C236.15315472 1000.18755266 150.62502467 1040.03518459 -121.30453491 1065.49609375 C-204.95290276 1056.11979319 -286.06137879 1028.83820347 -358 985 C-359.26529541 984.23091309 -359.26529541 984.23091309 -360.55615234 983.44628906 C-388.82536259 966.16660079 -415.99915892 946.28013481 -440.19140625 923.59765625 C-442.2407394 921.70223686 -444.30476113 919.89077463 -446.4296875 918.0859375 C-452.43194015 912.85547386 -457.99162136 907.15713765 -463.60913086 901.52124023 C-465.5579687 899.56704376 -467.51209272 897.61824853 -469.46679688 895.66992188 C-475.52336067 889.61688552 -481.49052842 883.56273878 -487 877 C-487.94845949 875.91616142 -488.89894267 874.83409001 -489.8515625 873.75390625 C-497.65365899 864.80919093 -504.89047435 855.50050249 -512 846 C-512.58072266 845.22962402 -513.16144531 844.45924805 -513.75976562 843.66552734 C-521.99324107 832.73480133 -529.79722007 821.63743268 -537 810 C-537.71470459 808.84661133 -537.71470459 808.84661133 -538.44384766 807.66992188 C-582.47228083 736.23795978 -608.11532544 658.30795223 -616 575 C-616.15686279 573.41372803 -616.15686279 573.41372803 -616.31689453 571.79541016 C-617.37590936 559.47938979 -617.24387604 547.10191389 -617.25 534.75 C-617.25067474 533.52657898 -617.25134949 532.30315796 -617.25204468 531.04266357 C-617.23468835 511.18215315 -616.53498835 491.70105116 -614 472 C-613.9175 471.3404834 -613.835 470.6809668 -613.75 470.00146484 C-609.75441197 438.0751797 -602.91889082 406.61630966 -593 376 C-592.66419922 374.95295898 -592.32839844 373.90591797 -591.98242188 372.82714844 C-569.81665895 304.37405704 -532.74569133 240.66801195 -484.265625 187.51171875 C-482.4199285 185.46554142 -480.61467051 183.39534345 -478.81445312 181.30957031 C-475.25167347 177.23612789 -471.52543846 173.36422864 -467.703125 169.53515625 C-467.0288446 168.85754745 -466.35456421 168.17993866 -465.65985107 167.48179626 C-464.24263926 166.05955939 -462.82410433 164.63863981 -461.40429688 163.21899414 C-459.26402078 161.07653508 -457.13188019 158.9262001 -455 156.77539062 C-448.34926163 150.09795606 -441.72211588 143.62747899 -434.28662109 137.8190918 C-431.87317234 135.8991039 -429.62570996 133.85728485 -427.375 131.75 C-420.99000102 125.94086327 -414.08287598 120.82475335 -407.18603516 115.64648438 C-405.10916054 114.08221786 -403.04333722 112.50454476 -400.98046875 110.921875 C-391.27123855 103.5030707 -381.27285687 96.61423358 -371 90 C-370.21592773 89.49388184 -369.43185547 88.98776367 -368.62402344 88.46630859 C-289.40091342 37.6333499 -197.93731987 7.60000788 0 0 Z M-113 5 C-113.83942139 5.07796814 -114.67884277 5.15593628 -115.54370117 5.23626709 C-120.41259503 5.69845404 -125.26864843 6.23325787 -130.125 6.8125 C-130.83158752 6.89614807 -131.53817505 6.97979614 -132.26617432 7.065979 C-144.59675646 8.54117835 -156.71598087 10.63671388 -168.84716797 13.31152344 C-172.26941594 14.05883173 -175.69805448 14.76984481 -179.12890625 15.4765625 C-181.56524682 15.98369016 -184.00144773 16.49148929 -186.4375 17 C-187.52595215 17.22478027 -188.6144043 17.44956055 -189.73583984 17.68115234 C-265.31693309 33.76633034 -338.68182748 69.48778954 -400 116 C-400.55155762 116.41411133 -401.10311523 116.82822266 -401.67138672 117.25488281 C-408.94287444 122.71541471 -415.958019 128.42028623 -422.86328125 134.3359375 C-425.79947962 136.8459573 -428.80012519 139.26929015 -431.8125 141.6875 C-435.74117422 144.88168295 -439.37089272 148.21054268 -442.85546875 151.8828125 C-444.7288736 153.73233059 -446.64596061 155.4371263 -448.640625 157.15234375 C-453.49597874 161.36902698 -458.02779572 165.88108125 -462.5625 170.4375 C-463.37396484 171.24509766 -464.18542969 172.05269531 -465.02148438 172.88476562 C-469.89001877 177.76115883 -474.50984579 182.77574469 -479 188 C-480.45445517 189.60768373 -481.91220895 191.21239715 -483.375 192.8125 C-488.1021291 198.06398292 -492.60346283 203.47010495 -497 209 C-497.51723633 209.65000977 -498.03447266 210.30001953 -498.56738281 210.96972656 C-540.11469929 263.36590904 -573.55117487 323.50451596 -592 388 C-592.40895508 389.4221582 -592.40895508 389.4221582 -592.82617188 390.87304688 C-599.3954857 413.94611569 -604.53752853 437.10667715 -607.75 460.875 C-607.85105042 461.61875885 -607.95210083 462.3625177 -608.05621338 463.1288147 C-608.76530575 468.4126281 -609.39916504 473.70287465 -610 479 C-610.09495758 479.80792999 -610.18991516 480.61585999 -610.28775024 481.44827271 C-612.04388353 496.71984168 -612.27954169 511.88879984 -612.20581055 527.25073242 C-612.18747623 531.1926114 -612.18530235 535.13425448 -612.18554688 539.07617188 C-612.16007179 558.73946327 -611.59090768 577.97432281 -608.75 597.4375 C-608.52739451 598.99844941 -608.3048202 600.55940327 -608.08227539 602.12036133 C-604.36103875 627.93080288 -599.64154131 653.22425211 -591.88891602 678.13867188 C-591.21604524 680.30457286 -590.55128882 682.47299687 -589.89038086 684.64257812 C-587.0262655 693.99969518 -583.87902437 703.21494597 -580.4375 712.375 C-580.18254761 713.0561084 -579.92759521 713.7372168 -579.66491699 714.43896484 C-574.45835948 728.28990254 -568.46784118 741.68839244 -562 755 C-561.63455078 755.76119141 -561.26910156 756.52238281 -560.89257812 757.30664062 C-558.67686757 761.91514581 -556.37362948 766.47093277 -554 771 C-553.58347168 771.79728516 -553.16694336 772.59457031 -552.73779297 773.41601562 C-533.65820675 809.70744722 -510.03187727 844.39051374 -482.1953125 874.59375 C-480.33690356 876.63072492 -478.51987498 878.6928039 -476.7109375 880.7734375 C-466.35049799 892.63839061 -455.3877627 903.82590761 -443.734375 914.41845703 C-442.07290625 915.9335182 -440.4249196 917.46176479 -438.78125 918.99609375 C-432.39729746 924.94096533 -425.80988813 930.55028794 -419 936 C-417.86916043 936.92240375 -416.73898485 937.84562196 -415.609375 938.76953125 C-395.61579919 955.04928076 -374.2369418 969.94246778 -352 983 C-350.90413574 983.64437012 -350.90413574 983.64437012 -349.78613281 984.30175781 C-302.7368145 1011.83683821 -253.02998004 1033.1186956 -200.06982422 1046.23144531 C-197.36356218 1046.90897934 -194.6671323 1047.61325595 -191.97265625 1048.3359375 C-106.73250901 1070.97549332 -12.87078438 1069.60289283 131 1034 C132.19463867 1033.59523438 133.38927734 1033.19046875 134.62011719 1032.7734375 C169.58381096 1020.87906705 203.15644486 1005.70375512 235 987 C235.89122559 986.47873535 236.78245117 985.9574707 237.70068359 985.42041016 C248.70965006 978.96324737 259.4987754 972.25445608 270 965 C270.6815918 964.53094238 271.36318359 964.06188477 272.06542969 963.57861328 C281.99276303 956.72617768 291.6169119 949.57932601 301 942 C301.93070313 941.25234375 302.86140625 940.5046875 303.8203125 939.734375 C308.9191144 935.60181836 313.94257966 931.38209689 318.9375 927.125 C319.46214844 926.67970947 319.98679687 926.23441895 320.52734375 925.77563477 C331.10176445 916.71207255 341.08431894 907.07906557 350.91088867 897.21948242 C352.82422194 895.30074495 354.74290504 893.38747246 356.66210938 891.47460938 C362.65286408 885.48739164 368.55845256 879.49879544 374 873 C374.87641581 871.98985316 375.75396697 870.98068991 376.6328125 869.97265625 C383.53317365 861.9150245 390.01916403 853.58987934 396.39892578 845.11572266 C397.90743922 843.12231347 399.43278858 841.14331151 400.96484375 839.16796875 C448.83855665 777.05827343 480.42934031 701.18335284 494.39501953 624.265625 C494.87440126 621.67796965 495.38166055 619.10404096 495.93359375 616.53125 C501.5744556 589.6421676 502.21441581 561.56885563 502.1875 534.1875 C502.18689575 533.05316528 502.1862915 531.91883057 502.18566895 530.75012207 C502.16155307 514.0778198 501.88567339 497.58162797 500 481 C499.87109375 479.81277344 499.7421875 478.62554688 499.609375 477.40234375 C489.78496843 388.70978444 457.08152542 304.04470667 399 225 C398.58298828 224.4440918 398.16597656 223.88818359 397.73632812 223.31542969 C392.27537063 216.04409237 386.56990593 209.02882254 380.65234375 202.125 C378.20236332 199.25948454 375.84960455 196.32352335 373.5 193.375 C369.488686 188.43633922 365.09674725 183.99842726 360.55859375 179.5546875 C358.41290746 177.41227707 356.40412979 175.24192738 354.4375 172.9375 C348.59166011 166.11269171 342.14361062 159.86931271 335.31640625 154.03515625 C332.83148402 151.85194465 330.4214332 149.60110702 328.01074219 147.33666992 C321.55015988 141.27143926 314.95645792 135.49753411 308 130 C306.95812045 129.16563035 305.91646317 128.33098308 304.875 127.49609375 C290.4310373 115.97533927 275.57406783 104.94886285 260 95 C259.24589844 94.51740723 258.49179688 94.03481445 257.71484375 93.53759766 C218.14172292 68.34387527 176.5116104 48.34535468 132.203125 33.11938477 C130.05463954 32.36856115 127.9138867 31.59526133 125.78125 30.80053711 C115.72424867 27.0695011 105.50051439 24.25725312 95.125 21.5625 C94.20415619 21.3225531 93.28331238 21.0826062 92.33456421 20.83538818 C68.75045193 14.71996268 45.09463583 10.38143162 20.9375 7.25 C19.76497177 7.09788055 19.76497177 7.09788055 18.5687561 6.94268799 C13.05191772 6.23636357 7.52916674 5.60156073 2 5 C0.73950836 4.85806213 0.73950836 4.85806213 -0.54644775 4.71325684 C-16.69486946 2.93541443 -32.79606282 2.68643769 -49.02294922 2.73925781 C-52.53285371 2.75060722 -56.04245326 2.74389249 -59.55234718 2.73238087 C-77.44173851 2.68263044 -95.17835911 3.32641537 -113 5 Z " fill="#1671C5" transform="translate(1295,295)"/>
</svg>
